<?xml version="1.0" encoding="iso-8859-1"?>
<!-- Uploaded to: SVG Repo, www.svgrepo.com, Generator: SVG Repo Mixer Tools -->
<svg version="1.1" id="Layer_1" xmlns="http://www.w3.org/2000/svg" xmlns:xlink="http://www.w3.org/1999/xlink" 
	 viewBox="0 0 512.001 512.001" xml:space="preserve">
<rect x="87.981" y="132.324" style="fill:#F2F2F2;" width="336.05" height="369.458"/>
<path style="fill:#FFAD61;" d="M423.851,83.758H88.15c-5.838,0-10.572,4.734-10.572,10.572v27.422
	c0,5.838,4.734,10.572,10.572,10.572h335.701c5.838,0,10.572-4.734,10.572-10.572V94.331
	C434.423,88.492,429.69,83.758,423.851,83.758z"/>
<rect x="207.039" y="402.815" style="fill:#73C1DD;" width="97.914" height="98.966"/>
<g>
	<rect x="143.371" y="175.266" style="fill:#FFE6B8;" width="84.352" height="71.52"/>
	<rect x="284.278" y="175.266" style="fill:#FFE6B8;" width="84.352" height="71.52"/>
	<rect x="143.371" y="285.852" style="fill:#FFE6B8;" width="84.352" height="71.52"/>
	<rect x="284.278" y="285.852" style="fill:#FFE6B8;" width="84.352" height="71.52"/>
</g>
<g>
	<path style="fill:#4D3D36;" d="M424.024,512.001c5.643,0,10.22-4.575,10.22-10.22V139.732c6.205-3.601,10.398-10.303,10.398-17.979
		V94.331c0-11.464-9.327-20.792-20.792-20.792h-20.139c0.337-1.048,0.509-2.218,0.509-3.39c0-3.597-1.587-7.195-4.761-7.195h-24.123
		V4.974c0-3.491-4.127-4.973-8.253-4.973s-8.253,1.482-8.253,4.973v67.292c0,0.456,0.07,0.879,0.192,1.273h-7.882
		c0.336-1.035,0.499-2.176,0.499-3.284c0-3.915-1.8-7.301-4.973-7.301H318.31V44.968h15.87c3.492,0,4.973-3.386,4.973-6.242
		c0-3.386-1.8-6.454-4.973-6.454h-15.87V14.39h28.355c3.174,0,4.973-3.386,4.973-7.301c0-3.386-1.482-7.089-4.973-7.089h-37.666
		c-3.597,0-7.196,1.693-7.196,5.079v67.185c0,0.456,0.071,0.879,0.192,1.273h-26.543c0.14-0.394,0.22-0.818,0.22-1.273V14.813
		h14.601c3.174,0,4.972-3.492,4.972-7.512c0-3.491-1.48-7.301-4.972-7.301h-45.708c-3.492,0-4.972,3.809-4.972,7.301
		c0,4.02,1.799,7.512,4.972,7.512h14.604v57.451c0,0.456,0.08,0.879,0.22,1.273h-33.492c5.627-3.857,9.15-10.431,9.15-20.53V24.97
		c0-18.198-11.428-24.969-26.028-24.969s-25.922,6.771-25.922,24.969v28.038c0,10.098,3.49,16.673,9.088,20.53h-19.885
		c0.14-0.394,0.22-0.818,0.22-1.273V4.974c0-3.491-4.127-4.973-8.253-4.973c-4.127,0-8.253,1.482-8.253,4.973v25.922h-21.054V4.974
		c0-3.491-4.127-4.973-8.252-4.973c-4.127,0-8.253,1.482-8.253,4.973v67.292c0,0.456,0.081,0.879,0.22,1.273H88.15
		c-11.464,0-20.792,9.326-20.792,20.792v27.422c0,7.677,4.193,14.378,10.398,17.979v362.049c0,5.644,4.576,10.22,10.22,10.22
		H424.024z M199.602,24.97c0-7.301,3.492-10.58,9.416-10.58c5.924,0,9.523,3.28,9.523,10.58v28.038c0,7.301-3.597,10.58-9.523,10.58
		s-9.416-3.279-9.416-10.58V24.97z M134.959,72.266V43.593h21.054v28.673c0,0.456,0.081,0.879,0.22,1.273h-21.495
		C134.878,73.144,134.959,72.721,134.959,72.266z M87.798,94.331c0-0.194,0.157-0.353,0.353-0.353h335.7
		c0.194,0,0.353,0.158,0.353,0.353v27.422c0,0.194-0.157,0.353-0.353,0.353H88.15c-0.194,0-0.353-0.158-0.353-0.353
		C87.798,121.753,87.798,94.331,87.798,94.331z M266.22,491.562v-24.275c0-5.644-4.576-10.22-10.22-10.22s-10.22,4.575-10.22,10.22
		v24.275h-28.519v-78.526h77.478v78.526H266.22z M413.805,491.562h-98.627v-88.746c0-5.644-4.576-10.22-10.22-10.22h-97.917
		c-5.643,0-10.22,4.575-10.22,10.22v88.746H98.196V142.543h315.609V491.562z"/>
	<path style="fill:#4D3D36;" d="M143.375,257.005h84.351c5.643,0,10.22-4.575,10.22-10.22v-71.519c0-5.644-4.576-10.22-10.22-10.22
		h-84.351c-5.643,0-10.22,4.575-10.22,10.22v71.519C133.155,252.429,137.731,257.005,143.375,257.005z M153.594,185.486h63.912
		v51.079h-63.912V185.486z"/>
	<path style="fill:#4D3D36;" d="M284.275,257.005h84.351c5.643,0,10.22-4.575,10.22-10.22v-71.519c0-5.644-4.576-10.22-10.22-10.22
		h-84.351c-5.643,0-10.22,4.575-10.22,10.22v71.519C274.055,252.429,278.632,257.005,284.275,257.005z M294.495,185.486h63.912
		v51.079h-63.912V185.486z"/>
	<path style="fill:#4D3D36;" d="M143.375,367.589h84.351c5.643,0,10.22-4.575,10.22-10.22v-71.519c0-5.644-4.576-10.22-10.22-10.22
		h-84.351c-5.643,0-10.22,4.575-10.22,10.22v71.519C133.155,363.014,137.731,367.589,143.375,367.589z M153.594,296.071h63.912
		v51.079h-63.912V296.071z"/>
	<path style="fill:#4D3D36;" d="M284.275,367.589h84.351c5.643,0,10.22-4.575,10.22-10.22v-71.519c0-5.644-4.576-10.22-10.22-10.22
		h-84.351c-5.643,0-10.22,4.575-10.22,10.22v71.519C274.055,363.014,278.632,367.589,284.275,367.589z M294.495,296.071h63.912
		v51.079h-63.912V296.071z"/>
	<path style="fill:#4D3D36;" d="M256.001,423.793c-5.643,0-10.22,4.575-10.22,10.22v3.119c0,5.644,4.576,10.22,10.22,10.22
		s10.22-4.575,10.22-10.22v-3.119C266.22,428.368,261.644,423.793,256.001,423.793z"/>
</g>
</svg>